<svg width="24" height="24" viewBox="0 0 24 24" fill="none" xmlns="http://www.w3.org/2000/svg">
<path d="M1 12C1 13.042 1.154 14.045 1.425 15H3.526C3.191 14.06 3 13.053 3 12C3 7.038 7.037 3 12 3C13.706 3 15.296 3.484 16.655 4.314L14.797 7H21.791L19.639 0L17.79 2.673C16.106 1.624 14.131 1 12 1C5.926 1 1 5.925 1 12ZM7.354 19.692C8.711 20.518 10.298 21 12 21C16.962 21 21 16.962 21 12C21 10.947 20.809 9.94 20.475 9H22.575C22.846 9.955 23 10.958 23 12C23 18.075 18.075 23 12 23C9.873 23 7.901 22.379 6.22 21.333L4.367 24L2.215 17.011H9.209L7.354 19.692V19.692Z" fill="black"/>
</svg>
